<svg xmlns="http://www.w3.org/2000/svg" xmlns:xlink="http://www.w3.org/1999/xlink" xmlns:lucid="lucid" width="1242" height="2222"><g transform="translate(-19 -39)" lucid:page-tab-id="YGcM5DNywbTK"><path d="M0 0h1360v3360H0z" fill="#fff"/><path d="M740 440h240v60H740z" fill="none"/><use xlink:href="#a" transform="matrix(1,0,0,1,740,440) translate(66.17777777777778 35.599999999999994)"/><use xlink:href="#b" transform="matrix(1,0,0,1,740,440) translate(114.95555555555555 35.599999999999994)"/><path d="M980 200h260v40H980z" stroke="#000" stroke-opacity="0" fill="#fff" fill-opacity="0" filter="url(#c)"/><g filter="url(#d)"><path d="M520 60h320v94.8H520z" stroke="#000" stroke-opacity="0" fill="#fff" fill-opacity="0"/><use xlink:href="#e" transform="matrix(1,0,0,1,525,65) translate(94.77962962962964 47.89583333333333)"/><use xlink:href="#f" transform="matrix(1,0,0,1,525,65) translate(148.7388888888889 47.89583333333333)"/></g><g filter="url(#g)"><path d="M728.15 260c17.67 0 32 17.9 32 40s-14.33 40-32 40h-96c-17.67 0-32-17.9-32-40s14.33-40 32-40z" stroke="#000" fill="#fff"/><use xlink:href="#h" transform="matrix(1,0,0,1,605.150661978987,265) translate(48.31666666666668 38.8875)"/></g><path d="M680.15 341v62.12" stroke="#000" fill="none"/><path d="M680.65 341h-1v-.5h1z" stroke="#000" stroke-width=".05"/><path d="M680.15 417.88l-4.63-14.26h9.27z" stroke="#000"/><g filter="url(#i)"><path d="M632.15 420h128l-32 120h-128z" stroke="#000" fill="#fff"/><use xlink:href="#j" transform="matrix(1,0,0,1,605.150661978987,425) translate(21.127222222222226 36.3875)"/><use xlink:href="#k" transform="matrix(1,0,0,1,605.150661978987,425) translate(65.51611111111112 36.3875)"/><use xlink:href="#l" transform="matrix(1,0,0,1,605.150661978987,425) translate(124.34944444444444 36.3875)"/><use xlink:href="#m" transform="matrix(1,0,0,1,605.150661978987,425) translate(34.58833333333333 60.3875)"/><use xlink:href="#n" transform="matrix(1,0,0,1,605.150661978987,425) translate(18.57222222222222 84.3875)"/><use xlink:href="#o" transform="matrix(1,0,0,1,605.150661978987,425) translate(60.62777777777778 84.3875)"/><use xlink:href="#p" transform="matrix(1,0,0,1,605.150661978987,425) translate(79.51666666666667 84.3875)"/></g><path d="M680.15 541v62.12" stroke="#000" fill="none"/><path d="M680.65 541h-1v-.5h1z" stroke="#000" stroke-width=".05"/><path d="M680.15 617.88l-4.63-14.26h9.27z" stroke="#000"/><path d="M1014.98 480H761.05" stroke="#000" fill="none"/><path d="M1015.35 480.5h-.38v-1h.65z" stroke="#000" stroke-width=".05"/><path d="M746.3 480l14.25-4.64v9.28z" stroke="#000"/><g filter="url(#i)"><path d="M600.15 620h160v120h-160z" stroke="#000" fill="#fff"/><use xlink:href="#q" transform="matrix(1,0,0,1,612.150661978987,632) translate(8.594444444444441 40.2)"/><use xlink:href="#r" transform="matrix(1,0,0,1,612.150661978987,632) translate(70.76111111111112 40.2)"/><use xlink:href="#s" transform="matrix(1,0,0,1,612.150661978987,632) translate(45.27777777777777 64.2)"/></g><g filter="url(#t)"><path d="M369.92 940l89.93 70-89.93 70-89.92-70z" stroke="#000" fill="#fff"/><use xlink:href="#u" transform="matrix(1,0,0,1,284.9999999946115,945) translate(60.64388888888889 35.45)"/><use xlink:href="#v" transform="matrix(1,0,0,1,284.9999999946115,945) translate(76.14388888888888 35.45)"/><use xlink:href="#w" transform="matrix(1,0,0,1,284.9999999946115,945) translate(41.754999999999995 59.45)"/><use xlink:href="#x" transform="matrix(1,0,0,1,284.9999999946115,945) translate(62.81055555555556 59.45)"/><use xlink:href="#y" transform="matrix(1,0,0,1,284.9999999946115,945) translate(40.67166666666667 83.45)"/><use xlink:href="#z" transform="matrix(1,0,0,1,284.9999999946115,945) translate(112.83833333333334 83.45)"/><use xlink:href="#A" transform="matrix(1,0,0,1,284.9999999946115,945) translate(65.58833333333334 107.45)"/></g><g filter="url(#t)"><path d="M680 940l89.92 70-89.92 70-89.92-70z" stroke="#000" fill="#fff"/><use xlink:href="#B" transform="matrix(1,0,0,1,595.0753309894935,945) translate(34.505 67.95)"/><use xlink:href="#C" transform="matrix(1,0,0,1,595.0753309894935,945) translate(51.17166666666667 67.95)"/><use xlink:href="#D" transform="matrix(1,0,0,1,595.0753309894935,945) translate(102.17166666666667 67.95)"/></g><path d="M680.15 741v182.1" stroke="#000" fill="none"/><path d="M680.65 741h-1v-.5h1z" stroke="#000" stroke-width=".05"/><path d="M680.15 937.87l-4.63-14.27h9.27z" stroke="#000"/><path d="M512.2 1010.5h-35.15v-1h35.16zm76.56 0H537.7v-1h51.06z" stroke="#000" stroke-width=".05"/><path d="M589.26 1010l.64.5h-1.15v-1h1.15z"/><path d="M589.3 1010l.68.52h-1.26v-1.04h1.26zm-.53-.48v.96h1.06l-.6-.48.6-.48z" stroke="#000" stroke-width=".05"/><path d="M476.55 1014.64l-14.27-4.64 14.27-4.64z"/><path d="M477.05 1015.32l-16.4-5.32 16.4-5.32zM463.9 1010l12.15 3.95v-7.9z" stroke="#000" stroke-width=".05"/><use xlink:href="#E" transform="matrix(1,0,0,1,512.2123344920526,996.4) translate(-5.594999999999999 19.2)"/><path d="M223.54 1010.5h-6.66v-1h6.66zm55.15 0h-22.55v-1h22.54z" stroke="#000" stroke-width=".05"/><path d="M279.2 1010l.63.5h-1.16v-1h1.16z"/><path d="M279.23 1010l.67.52h-1.25v-1.04h1.25zm-.53-.48v.96h1.06l-.6-.48.6-.48z" stroke="#000" stroke-width=".05"/><path d="M216.38 1014.64l-14.26-4.64 14.26-4.64z"/><path d="M216.88 1015.32L200.5 1010l16.38-5.32zm-13.14-5.32l12.14 3.95v-7.9z" stroke="#000" stroke-width=".05"/><use xlink:href="#F" transform="matrix(1,0,0,1,223.53745126602584,996.4) translate(-5.595000000000001 19.2)"/><g filter="url(#i)"><path d="M40 950h160v120H40z" stroke="#000" fill="#fff"/><use xlink:href="#G" transform="matrix(1,0,0,1,52,962) translate(18.594444444444434 40.2)"/><use xlink:href="#H" transform="matrix(1,0,0,1,52,962) translate(44.138888888888886 64.2)"/></g><path d="M370.42 938.87h-1v-5.34h1z" stroke="#000" stroke-width=".05"/><path d="M370.42 939.76l-.5-.4-.5.4v-.9h1z"/><path d="M370.45 939.8l-.53-.4-.52.4v-.97h1.05zm-1-.92v.82l.47-.37.48.37v-.82z" stroke="#000" stroke-width=".05"/><path d="M371.3 906.33h-2.74l1.36-4.2z"/><path d="M371.82 906.33h-1.05l-.85-2.6-.84 2.6h-1.05l1.9-5.83z" stroke="#000" stroke-width=".05"/><use xlink:href="#E" transform="matrix(1,0,0,1,357.1746690024238,906.3331845761749) translate(-5.594999999999999 19.2)"/><g filter="url(#i)"><path d="M289.92 780h160v120h-160z" stroke="#000" fill="#fff"/><use xlink:href="#I" transform="matrix(1,0,0,1,301.924669005118,792) translate(5.900000000000006 40.2)"/><use xlink:href="#J" transform="matrix(1,0,0,1,301.924669005118,792) translate(83.45555555555555 40.2)"/><use xlink:href="#K" transform="matrix(1,0,0,1,301.924669005118,792) translate(62.44444444444444 64.2)"/></g><path d="M120 949V680h153.04" stroke="#000" fill="none"/><path d="M120.5 949.5h-1v-.5h1z" stroke="#000" stroke-width=".05"/><path d="M287.8 680l-14.26 4.64v-9.28z" stroke="#000"/><g filter="url(#L)"><path d="M289.92 606.4h160v147.2h-160z" stroke="#000" fill="#fff"/><use xlink:href="#M" transform="matrix(1,0,0,1,301.924669005118,618.4) translate(6.372222222222213 23.075)"/><use xlink:href="#N" transform="matrix(1,0,0,1,301.924669005118,618.4) translate(76.31666666666666 23.075)"/><use xlink:href="#O" transform="matrix(1,0,0,1,301.924669005118,618.4) translate(20.86111111111111 47.075)"/><use xlink:href="#n" transform="matrix(1,0,0,1,301.924669005118,618.4) translate(59.75 47.075)"/><use xlink:href="#l" transform="matrix(1,0,0,1,301.924669005118,618.4) translate(101.80555555555556 47.075)"/><use xlink:href="#P" transform="matrix(1,0,0,1,301.924669005118,618.4) translate(32.472222222222214 71.075)"/><use xlink:href="#Q" transform="matrix(1,0,0,1,301.924669005118,618.4) translate(86.86111111111111 71.075)"/><use xlink:href="#R" transform="matrix(1,0,0,1,301.924669005118,618.4) translate(49.111111111111114 95.075)"/><use xlink:href="#S" transform="matrix(1,0,0,1,301.924669005118,618.4) translate(32.5 119.075)"/></g><path d="M450.92 680h132.35" stroke="#000" fill="none"/><path d="M450.94 680.5h-.52v-1h.52z" stroke="#000" stroke-width=".05"/><path d="M598.03 680l-14.26 4.64v-9.28z" stroke="#000"/><path d="M369.92 779v-8.52" stroke="#000" fill="none"/><path d="M370.42 779.5h-1v-.5h1z" stroke="#000" stroke-width=".05"/><path d="M369.92 755.72l4.64 14.26h-9.27z" stroke="#000"/><g filter="url(#i)"><path d="M600.15 1160h160v120h-160z" stroke="#000" fill="#fff"/><use xlink:href="#q" transform="matrix(1,0,0,1,612.150661978987,1172) translate(8.594444444444441 40.2)"/><use xlink:href="#r" transform="matrix(1,0,0,1,612.150661978987,1172) translate(70.76111111111112 40.2)"/><use xlink:href="#s" transform="matrix(1,0,0,1,612.150661978987,1172) translate(45.27777777777777 64.2)"/></g><g filter="url(#t)"><path d="M389.92 1700l89.93 70-89.93 70-89.92-70z" stroke="#000" fill="#fff"/><use xlink:href="#T" transform="matrix(1,0,0,1,304.9999999946116,1705) translate(51.14388888888889 43.575)"/><use xlink:href="#U" transform="matrix(1,0,0,1,304.9999999946116,1705) translate(108.92166666666667 43.575)"/><use xlink:href="#V" transform="matrix(1,0,0,1,304.9999999946116,1705) translate(28.977222222222217 67.575)"/><use xlink:href="#W" transform="matrix(1,0,0,1,304.9999999946116,1705) translate(117.69944444444445 67.575)"/><use xlink:href="#N" transform="matrix(1,0,0,1,304.9999999946116,1705) translate(63.949444444444445 91.575)"/></g><g filter="url(#t)"><path d="M680.15 1700l89.93 70-89.93 70-89.92-70z" stroke="#000" fill="#fff"/><use xlink:href="#B" transform="matrix(1,0,0,1,595.2259929684806,1705) translate(34.505 67.95)"/><use xlink:href="#C" transform="matrix(1,0,0,1,595.2259929684806,1705) translate(51.17166666666667 67.95)"/><use xlink:href="#D" transform="matrix(1,0,0,1,595.2259929684806,1705) translate(102.17166666666667 67.95)"/></g><path d="M680.15 1281l.15 402.1" stroke="#000" fill="none"/><path d="M680.65 1281h-1v-.5h1z" stroke="#000" stroke-width=".05"/><path d="M680.3 1697.87l-4.64-14.27h9.27z" stroke="#000"/><path d="M522.3 1770.5h-25.25v-1h25.24zm66.6 0h-41.1v-1h41.1z" stroke="#000" stroke-width=".05"/><path d="M589.4 1770l.65.5h-1.15v-1h1.15z"/><path d="M589.45 1770l.68.53h-1.26v-1.06h1.26zm-.53-.47v.94h1.06l-.6-.47.6-.47z" stroke="#000" stroke-width=".05"/><path d="M496.55 1774.64l-14.27-4.64 14.27-4.64z"/><path d="M497.05 1775.32l-16.4-5.32 16.4-5.32zM483.9 1770l12.15 3.95v-7.9z" stroke="#000" stroke-width=".05"/><use xlink:href="#E" transform="matrix(1,0,0,1,522.2876654815461,1756.4) translate(-5.594999999999999 19.2)"/><path d="M243.54 1770.5h-6.66v-1h6.66zm55.15 0h-22.55v-1h22.54z" stroke="#000" stroke-width=".05"/><path d="M299.2 1770l.63.5h-1.16v-1h1.16z"/><path d="M299.23 1770l.67.53h-1.25v-1.06h1.25zm-.53-.47v.94h1.06l-.6-.47.6-.47z" stroke="#000" stroke-width=".05"/><path d="M236.38 1774.64l-14.26-4.64 14.26-4.64z"/><path d="M236.88 1775.32L220.5 1770l16.38-5.32zm-13.14-5.32l12.14 3.95v-7.9z" stroke="#000" stroke-width=".05"/><use xlink:href="#F" transform="matrix(1,0,0,1,243.53745126602587,1756.4) translate(-5.595000000000001 19.2)"/><g filter="url(#i)"><path d="M60 1710h160v120H60z" stroke="#000" fill="#fff"/><use xlink:href="#X" transform="matrix(1,0,0,1,72,1722) translate(8.622222222222227 28.2)"/><use xlink:href="#Y" transform="matrix(1,0,0,1,72,1722) translate(61.9 28.2)"/><use xlink:href="#Z" transform="matrix(1,0,0,1,72,1722) translate(100.67777777777778 28.2)"/><use xlink:href="#aa" transform="matrix(1,0,0,1,72,1722) translate(15.305555555555554 52.2)"/><use xlink:href="#ab" transform="matrix(1,0,0,1,72,1722) translate(37.52777777777777 52.2)"/><use xlink:href="#s" transform="matrix(1,0,0,1,72,1722) translate(45.27777777777777 76.2)"/></g><path d="M390.42 1698.87h-1v-15.27h1z" stroke="#000" stroke-width=".05"/><path d="M390.42 1699.76l-.5-.4-.5.4v-.9h1z"/><path d="M390.45 1699.8l-.53-.4-.52.4v-.97h1.05zm-1-.92v.82l.47-.37.48.37v-.82z" stroke="#000" stroke-width=".05"/><path d="M394.52 1656.4h-9.2l4.6-14.15z"/><path d="M395.05 1656.4H384.8l5.12-15.77zm-9.07-.38h7.9l-3.96-12.15z" stroke="#000" stroke-width=".05"/><use xlink:href="#E" transform="matrix(1,0,0,1,377.1746689997296,1656.3999999979028) translate(-5.594999999999999 19.2)"/><path d="M140 1709v-139h142.8" stroke="#000" fill="none"/><path d="M140.5 1709.5h-1v-.5h1z" stroke="#000" stroke-width=".05"/><path d="M297.57 1570l-14.27 4.64v-9.28z" stroke="#000"/><g filter="url(#i)"><path d="M309.92 1160h160v120h-160z" stroke="#000" fill="#fff"/><use xlink:href="#ac" transform="matrix(1,0,0,1,321.92466900511806,1172) translate(2.4277777777777843 40.2)"/><use xlink:href="#P" transform="matrix(1,0,0,1,321.92466900511806,1172) translate(7.98333333333334 40.2)"/><use xlink:href="#aa" transform="matrix(1,0,0,1,321.92466900511806,1172) translate(62.37222222222223 40.2)"/><use xlink:href="#R" transform="matrix(1,0,0,1,321.92466900511806,1172) translate(84.59444444444443 40.2)"/><use xlink:href="#S" transform="matrix(1,0,0,1,321.92466900511806,1172) translate(32.5 64.2)"/></g><path d="M470.92 1220h112.35" stroke="#000" fill="none"/><path d="M470.94 1220.5h-.52v-1h.52z" stroke="#000" stroke-width=".05"/><path d="M598.03 1220l-14.26 4.64v-9.28z" stroke="#000"/><path d="M680.62 1143.12h-1l-.02-9.45h1zm-.07-36.65h-1l-.05-25.34h1z" stroke="#000" stroke-width=".05"/><path d="M680 1080.63l.5-.4v.92h-1v-.9z"/><path d="M680 1080.6l.52-.4v.97h-1.04v-.98zm-.47.52h.95v-.82l-.48.37-.48-.37z" stroke="#000" stroke-width=".05"/><path d="M680.15 1157.88l-4.66-14.25 9.26-.02z"/><path d="M680.15 1159.5l-5.35-16.37 10.64-.02zm-3.98-15.38l3.97 12.14 3.93-12.15z" stroke="#000" stroke-width=".05"/><use xlink:href="#F" transform="matrix(1,0,0,1,663.7697754312437,1106.4668154238252) translate(-5.595000000000001 19.2)"/><g filter="url(#t)"><path d="M389.92 1500l89.93 70-89.93 70-89.92-70z" stroke="#000" fill="#fff"/><use xlink:href="#T" transform="matrix(1,0,0,1,304.99999998922317,1505) translate(51.14388888888889 43.575)"/><use xlink:href="#U" transform="matrix(1,0,0,1,304.99999998922317,1505) translate(108.92166666666667 43.575)"/><use xlink:href="#V" transform="matrix(1,0,0,1,304.99999998922317,1505) translate(28.977222222222217 67.575)"/><use xlink:href="#W" transform="matrix(1,0,0,1,304.99999998922317,1505) translate(117.69944444444445 67.575)"/><use xlink:href="#ad" transform="matrix(1,0,0,1,304.99999998922317,1505) translate(64.56055555555557 91.575)"/></g><g filter="url(#i)"><path d="M309.92 1320h160v120h-160z" stroke="#000" fill="#fff"/><use xlink:href="#X" transform="matrix(1,0,0,1,321.92466900511806,1332) translate(8.622222222222227 28.2)"/><use xlink:href="#Y" transform="matrix(1,0,0,1,321.92466900511806,1332) translate(61.9 28.2)"/><use xlink:href="#Z" transform="matrix(1,0,0,1,321.92466900511806,1332) translate(100.67777777777778 28.2)"/><use xlink:href="#aa" transform="matrix(1,0,0,1,321.92466900511806,1332) translate(18.11111111111111 52.2)"/><use xlink:href="#ae" transform="matrix(1,0,0,1,321.92466900511806,1332) translate(40.33333333333333 52.2)"/><use xlink:href="#s" transform="matrix(1,0,0,1,321.92466900511806,1332) translate(45.27777777777777 76.2)"/></g><path d="M390.42 1498.87h-1v-15.34h1z" stroke="#000" stroke-width=".05"/><path d="M390.42 1499.76l-.5-.4-.5.4v-.9h1z"/><path d="M390.45 1499.8l-.53-.4-.52.4v-.97h1.05zm-1-.92v.82l.47-.37.48.37v-.82z" stroke="#000" stroke-width=".05"/><path d="M394.54 1456.33h-9.23l4.62-14.2z"/><path d="M395.07 1456.33h-10.3l5.15-15.83zm-9.1-.45h7.9l-3.95-12.14z" stroke="#000" stroke-width=".05"/><use xlink:href="#F" transform="matrix(1,0,0,1,373.6191134441741,1456.333184576175) translate(-5.595000000000001 19.2)"/><path d="M389.92 1319v-22.12" stroke="#000" fill="none"/><path d="M390.42 1319.5h-1v-.5h1z" stroke="#000" stroke-width=".05"/><path d="M389.92 1282.12l4.64 14.26h-9.27z" stroke="#000"/><path d="M293.04 1220.5H160.5v279l228.92-.63v1l-229.92.63v-281h133.54z" stroke="#000" stroke-width=".05"/><path d="M392.93 1499.86h-2.37l-.64-.5-.5.4v-.9h3.5z"/><path d="M392.95 1499.88h-2.4l-.63-.48-.53.42v-.98h3.55zm-3.5-1v.83l.47-.37.65.5h2.33v-.95z" stroke="#000" stroke-width=".05"/><path d="M307.8 1220l-14.26 4.64v-9.28z"/><path d="M309.42 1220l-16.38 5.32v-10.64zm-15.38 3.95l12.15-3.95-12.16-3.95z" stroke="#000" stroke-width=".05"/><use xlink:href="#E" transform="matrix(1,0,0,1,126.5,1247.2524568996214) translate(-5.594999999999999 19.2)"/><path d="M680.65 1923.12h-1v-19.45h1zm0-46.65h-1v-35.34h1z" stroke="#000" stroke-width=".05"/><path d="M680.65 1841.15h-1v-.9l.5.38.5-.4z"/><path d="M680.68 1841.17h-1.05v-.98l.52.4.53-.4zm-.53-.5l-.47-.37v.82h.95v-.82z" stroke="#000" stroke-width=".05"/><path d="M680.15 1937.88l-4.63-14.26h9.27z"/><path d="M680.15 1939.5l-5.32-16.38h10.64zm-3.95-15.38l3.95 12.14 3.95-12.14z" stroke="#000" stroke-width=".05"/><use xlink:href="#F" transform="matrix(1,0,0,1,663.845106418043,1876.4668154238252) translate(-5.595000000000001 19.2)"/><g filter="url(#i)"><path d="M600.15 1940h160v120h-160z" stroke="#000" fill="#fff"/><use xlink:href="#af" transform="matrix(1,0,0,1,612.1506619735985,1952) translate(3.0944444444444414 28.2)"/><use xlink:href="#ag" transform="matrix(1,0,0,1,612.1506619735985,1952) translate(40.87222222222222 28.2)"/><use xlink:href="#ah" transform="matrix(1,0,0,1,612.1506619735985,1952) translate(11.944444444444446 52.2)"/><use xlink:href="#ai" transform="matrix(1,0,0,1,612.1506619735985,1952) translate(34.166666666666664 52.2)"/><use xlink:href="#aj" transform="matrix(1,0,0,1,612.1506619735985,1952) translate(78.61111111111111 52.2)"/><use xlink:href="#o" transform="matrix(1,0,0,1,612.1506619735985,1952) translate(14.194444444444446 76.2)"/><use xlink:href="#ak" transform="matrix(1,0,0,1,612.1506619735985,1952) translate(33.08333333333333 76.2)"/><use xlink:href="#al" transform="matrix(1,0,0,1,612.1506619735985,1952) translate(77.41666666666666 76.2)"/></g><path d="M680.15 2061v82.12" stroke="#000" fill="none"/><path d="M680.65 2061h-1v-.5h1z" stroke="#000" stroke-width=".05"/><path d="M680.15 2157.88l-4.63-14.26h9.27z" stroke="#000"/><g filter="url(#g)"><path d="M728.15 2160c17.67 0 32 17.9 32 40s-14.33 40-32 40h-96c-17.67 0-32-17.9-32-40s14.33-40 32-40z" stroke="#000" fill="#fff"/><use xlink:href="#am" transform="matrix(1,0,0,1,605.1506619735985,2165) translate(51.62222222222223 38.8875)"/></g><g filter="url(#i)"><path d="M1032 420h128l-32 120h-128z" stroke="#000" fill="#fff"/><use xlink:href="#an" transform="matrix(1,0,0,1,1005,425) translate(31.293888888888898 46.7)"/><use xlink:href="#ao" transform="matrix(1,0,0,1,1005,425) translate(81.2938888888889 46.7)"/><use xlink:href="#s" transform="matrix(1,0,0,1,1005,425) translate(49.37777777777778 70.7)"/></g><defs><path fill="#666" d="M115-194c53 0 69 39 70 98 0 66-23 100-70 100C84 3 66-7 56-30L54 0H23l1-261h32v101c10-23 28-34 59-34zm-8 174c40 0 45-34 45-75 0-40-5-75-45-74-42 0-51 32-51 76 0 43 10 73 51 73" id="ap"/><path fill="#666" d="M24-231v-30h32v30H24zM24 0v-190h32V0H24" id="aq"/><path fill="#666" d="M114-163C36-179 61-72 57 0H25l-1-190h30c1 12-1 29 2 39 6-27 23-49 58-41v29" id="ar"/><path fill="#666" d="M85-194c31 0 48 13 60 33l-1-100h32l1 261h-30c-2-10 0-23-3-31C134-8 116 4 85 4 32 4 16-35 15-94c0-66 23-100 70-100zm9 24c-40 0-46 34-46 75 0 40 6 74 45 74 42 0 51-32 51-76 0-42-9-74-50-73" id="as"/><path fill="#666" d="M135-143c-3-34-86-38-87 0 15 53 115 12 119 90S17 21 10-45l28-5c4 36 97 45 98 0-10-56-113-15-118-90-4-57 82-63 122-42 12 7 21 19 24 35" id="at"/><g id="a"><use transform="matrix(0.05555555555555555,0,0,0.05555555555555555,0,0)" xlink:href="#ap"/><use transform="matrix(0.05555555555555555,0,0,0.05555555555555555,11.11111111111111,0)" xlink:href="#aq"/><use transform="matrix(0.05555555555555555,0,0,0.05555555555555555,15.5,0)" xlink:href="#ar"/><use transform="matrix(0.05555555555555555,0,0,0.05555555555555555,22.11111111111111,0)" xlink:href="#as"/><use transform="matrix(0.05555555555555555,0,0,0.05555555555555555,33.22222222222222,0)" xlink:href="#at"/></g><path fill="#666" d="M205 0l-28-72H64L36 0H1l101-248h38L239 0h-34zm-38-99l-47-123c-12 45-31 82-46 123h93" id="au"/><path fill="#666" d="M141-36C126-15 110 5 73 4 37 3 15-17 15-53c-1-64 63-63 125-63 3-35-9-54-41-54-24 1-41 7-42 31l-33-3c5-37 33-52 76-52 45 0 72 20 72 64v82c-1 20 7 32 28 27v20c-31 9-61-2-59-35zM48-53c0 20 12 33 32 33 41-3 63-29 60-74-43 2-92-5-92 41" id="av"/><path fill="#666" d="M179-190L93 31C79 59 56 82 12 73V49c39 6 53-20 64-50L1-190h34L92-34l54-156h33" id="aw"/><g id="b"><use transform="matrix(0.05555555555555555,0,0,0.05555555555555555,0,0)" xlink:href="#au"/><use transform="matrix(0.05555555555555555,0,0,0.05555555555555555,13.333333333333332,0)" xlink:href="#ar"/><use transform="matrix(0.05555555555555555,0,0,0.05555555555555555,19.944444444444443,0)" xlink:href="#ar"/><use transform="matrix(0.05555555555555555,0,0,0.05555555555555555,26.555555555555554,0)" xlink:href="#av"/><use transform="matrix(0.05555555555555555,0,0,0.05555555555555555,37.666666666666664,0)" xlink:href="#aw"/></g><filter id="c" filterUnits="objectBoundingBox" x="-.04" y="-.1" width="1.08" height="1.5"><feOffset result="offOut" in="SourceAlpha" dy="6"/><feGaussianBlur result="blurOut" in="offOut" stdDeviation="5"/><feColorMatrix result="colorOut" in="blurOut" values="0 0 0 0 0 0 0 0 0 0 0 0 0 0 0 0 0 0 0.16862745098039217 0"/><feBlend in="SourceGraphic" in2="colorOut"/></filter><path fill="#333" d="M63-220v92h138v28H63V0H30v-248h175v28H63" id="ax"/><path fill="#333" d="M24 0v-261h32V0H24" id="ay"/><path fill="#333" d="M100-194c62-1 85 37 85 99 1 63-27 99-86 99S16-35 15-95c0-66 28-99 85-99zM99-20c44 1 53-31 53-75 0-43-8-75-51-75s-53 32-53 75 10 74 51 75" id="az"/><path fill="#333" d="M206 0h-36l-40-164L89 0H53L-1-190h32L70-26l43-164h34l41 164 42-164h31" id="aA"/><g id="e"><use transform="matrix(0.06296296296296296,0,0,0.06296296296296296,0,0)" xlink:href="#ax"/><use transform="matrix(0.06296296296296296,0,0,0.06296296296296296,13.788888888888888,0)" xlink:href="#ay"/><use transform="matrix(0.06296296296296296,0,0,0.06296296296296296,18.762962962962963,0)" xlink:href="#az"/><use transform="matrix(0.06296296296296296,0,0,0.06296296296296296,31.355555555555554,0)" xlink:href="#aA"/></g><path fill="#333" d="M212-179c-10-28-35-45-73-45-59 0-87 40-87 99 0 60 29 101 89 101 43 0 62-24 78-52l27 14C228-24 195 4 139 4 59 4 22-46 18-125c-6-104 99-153 187-111 19 9 31 26 39 46" id="aB"/><path fill="#333" d="M106-169C34-169 62-67 57 0H25v-261h32l-1 103c12-21 28-36 61-36 89 0 53 116 60 194h-32v-121c2-32-8-49-39-48" id="aC"/><path fill="#333" d="M141-36C126-15 110 5 73 4 37 3 15-17 15-53c-1-64 63-63 125-63 3-35-9-54-41-54-24 1-41 7-42 31l-33-3c5-37 33-52 76-52 45 0 72 20 72 64v82c-1 20 7 32 28 27v20c-31 9-61-2-59-35zM48-53c0 20 12 33 32 33 41-3 63-29 60-74-43 2-92-5-92 41" id="aD"/><path fill="#333" d="M114-163C36-179 61-72 57 0H25l-1-190h30c1 12-1 29 2 39 6-27 23-49 58-41v29" id="aE"/><path fill="#333" d="M59-47c-2 24 18 29 38 22v24C64 9 27 4 27-40v-127H5v-23h24l9-43h21v43h35v23H59v120" id="aF"/><g id="f"><use transform="matrix(0.06296296296296296,0,0,0.06296296296296296,0,0)" xlink:href="#aB"/><use transform="matrix(0.06296296296296296,0,0,0.06296296296296296,16.307407407407407,0)" xlink:href="#aC"/><use transform="matrix(0.06296296296296296,0,0,0.06296296296296296,28.9,0)" xlink:href="#aD"/><use transform="matrix(0.06296296296296296,0,0,0.06296296296296296,41.49259259259259,0)" xlink:href="#aE"/><use transform="matrix(0.06296296296296296,0,0,0.06296296296296296,48.98518518518518,0)" xlink:href="#aF"/></g><filter id="d" filterUnits="objectBoundingBox" x="-.03" y="-.04" width="1.06" height="1.21"><feOffset result="offOut" in="SourceAlpha" dy="6"/><feGaussianBlur result="blurOut" in="offOut" stdDeviation="5"/><feColorMatrix result="colorOut" in="blurOut" values="0 0 0 0 0 0 0 0 0 0 0 0 0 0 0 0 0 0 0.16862745098039217 0"/><feBlend in="SourceGraphic" in2="colorOut"/></filter><path fill="#666" d="M185-189c-5-48-123-54-124 2 14 75 158 14 163 119 3 78-121 87-175 55-17-10-28-26-33-46l33-7c5 56 141 63 141-1 0-78-155-14-162-118-5-82 145-84 179-34 5 7 8 16 11 25" id="aG"/><path fill="#666" d="M59-47c-2 24 18 29 38 22v24C64 9 27 4 27-40v-127H5v-23h24l9-43h21v43h35v23H59v120" id="aH"/><g id="h"><use transform="matrix(0.05555555555555555,0,0,0.05555555555555555,0,0)" xlink:href="#aG"/><use transform="matrix(0.05555555555555555,0,0,0.05555555555555555,13.333333333333332,0)" xlink:href="#aH"/><use transform="matrix(0.05555555555555555,0,0,0.05555555555555555,18.888888888888886,0)" xlink:href="#av"/><use transform="matrix(0.05555555555555555,0,0,0.05555555555555555,30,0)" xlink:href="#ar"/><use transform="matrix(0.05555555555555555,0,0,0.05555555555555555,36.61111111111111,0)" xlink:href="#aH"/></g><filter id="g" filterUnits="objectBoundingBox" x="-.06" y="-.05" width="1.13" height="1.25"><feOffset result="offOut" in="SourceAlpha" dy="6"/><feGaussianBlur result="blurOut" in="offOut" stdDeviation="5"/><feColorMatrix result="colorOut" in="blurOut" values="0 0 0 0 0 0 0 0 0 0 0 0 0 0 0 0 0 0 0.16862745098039217 0"/><feBlend in="SourceGraphic" in2="colorOut"/></filter><path fill="#666" d="M240 0l2-218c-23 76-54 145-80 218h-23L58-218 59 0H30v-248h44l77 211c21-75 51-140 76-211h43V0h-30" id="aI"/><path fill="#666" d="M115-194c55 1 70 41 70 98S169 2 115 4C84 4 66-9 55-30l1 105H24l-1-265h31l2 30c10-21 28-34 59-34zm-8 174c40 0 45-34 45-75s-6-73-45-74c-42 0-51 32-51 76 0 43 10 73 51 73" id="aJ"/><g id="j"><use transform="matrix(0.05555555555555555,0,0,0.05555555555555555,0,0)" xlink:href="#aI"/><use transform="matrix(0.05555555555555555,0,0,0.05555555555555555,16.61111111111111,0)" xlink:href="#av"/><use transform="matrix(0.05555555555555555,0,0,0.05555555555555555,27.72222222222222,0)" xlink:href="#aJ"/></g><path fill="#666" d="M100-194c62-1 85 37 85 99 1 63-27 99-86 99S16-35 15-95c0-66 28-99 85-99zM99-20c44 1 53-31 53-75 0-43-8-75-51-75s-53 32-53 75 10 74 51 75" id="aK"/><path fill="#666" d="M24-231v-30h32v30H24zM-9 49c24 4 33-6 33-30v-209h32V24c2 40-23 58-65 49V49" id="aL"/><path fill="#666" d="M100-194c63 0 86 42 84 106H49c0 40 14 67 53 68 26 1 43-12 49-29l28 8c-11 28-37 45-77 45C44 4 14-33 15-96c1-61 26-98 85-98zm52 81c6-60-76-77-97-28-3 7-6 17-6 28h103" id="aM"/><path fill="#666" d="M96-169c-40 0-48 33-48 73s9 75 48 75c24 0 41-14 43-38l32 2c-6 37-31 61-74 61-59 0-76-41-82-99-10-93 101-131 147-64 4 7 5 14 7 22l-32 3c-4-21-16-35-41-35" id="aN"/><g id="k"><use transform="matrix(0.05555555555555555,0,0,0.05555555555555555,0,0)" xlink:href="#aK"/><use transform="matrix(0.05555555555555555,0,0,0.05555555555555555,11.11111111111111,0)" xlink:href="#ap"/><use transform="matrix(0.05555555555555555,0,0,0.05555555555555555,22.22222222222222,0)" xlink:href="#aL"/><use transform="matrix(0.05555555555555555,0,0,0.05555555555555555,26.61111111111111,0)" xlink:href="#aM"/><use transform="matrix(0.05555555555555555,0,0,0.05555555555555555,37.72222222222222,0)" xlink:href="#aN"/><use transform="matrix(0.05555555555555555,0,0,0.05555555555555555,47.72222222222222,0)" xlink:href="#aH"/></g><path fill="#666" d="M234-2c-28 10-62 0-77-18C117 19 8 12 13-65c3-43 29-61 60-76-25-40-17-114 47-108 35 3 59 15 59 50 0 44-40 53-71 69 14 26 32 50 51 72 14-21 24-43 30-72l26 8c-9 33-21 57-38 82 13 13 33 22 57 15v23zM97-151c25-10 52-18 56-48-1-18-13-29-33-29-42 0-39 50-23 77zM42-66c-3 51 71 58 98 28-20-24-41-51-56-80-23 10-40 24-42 52" id="aO"/><use transform="matrix(0.05555555555555555,0,0,0.05555555555555555,0,0)" xlink:href="#aO" id="l"/><path fill="#666" d="M108 0H70L1-190h34L89-25l56-165h34" id="aP"/><path fill="#666" d="M24 0v-261h32V0H24" id="aQ"/><g id="m"><use transform="matrix(0.05555555555555555,0,0,0.05555555555555555,0,0)" xlink:href="#aP"/><use transform="matrix(0.05555555555555555,0,0,0.05555555555555555,10,0)" xlink:href="#av"/><use transform="matrix(0.05555555555555555,0,0,0.05555555555555555,21.11111111111111,0)" xlink:href="#ar"/><use transform="matrix(0.05555555555555555,0,0,0.05555555555555555,27.72222222222222,0)" xlink:href="#aq"/><use transform="matrix(0.05555555555555555,0,0,0.05555555555555555,32.11111111111111,0)" xlink:href="#av"/><use transform="matrix(0.05555555555555555,0,0,0.05555555555555555,43.222222222222214,0)" xlink:href="#ap"/><use transform="matrix(0.05555555555555555,0,0,0.05555555555555555,54.33333333333333,0)" xlink:href="#aQ"/><use transform="matrix(0.05555555555555555,0,0,0.05555555555555555,58.72222222222222,0)" xlink:href="#aM"/><use transform="matrix(0.05555555555555555,0,0,0.05555555555555555,69.83333333333333,0)" xlink:href="#at"/></g><path fill="#666" d="M210-169c-67 3-38 105-44 169h-31v-121c0-29-5-50-35-48C34-165 62-65 56 0H25l-1-190h30c1 10-1 24 2 32 10-44 99-50 107 0 11-21 27-35 58-36 85-2 47 119 55 194h-31v-121c0-29-5-49-35-48" id="aR"/><path fill="#666" d="M117-194c89-4 53 116 60 194h-32v-121c0-31-8-49-39-48C34-167 62-67 57 0H25l-1-190h30c1 10-1 24 2 32 11-22 29-35 61-36" id="aS"/><g id="n"><use transform="matrix(0.05555555555555555,0,0,0.05555555555555555,0,0)" xlink:href="#aR"/><use transform="matrix(0.05555555555555555,0,0,0.05555555555555555,16.61111111111111,0)" xlink:href="#aq"/><use transform="matrix(0.05555555555555555,0,0,0.05555555555555555,21,0)" xlink:href="#aS"/><use transform="matrix(0.05555555555555555,0,0,0.05555555555555555,32.111111111111114,0)" xlink:href="#aq"/></g><use transform="matrix(0.05555555555555555,0,0,0.05555555555555555,0,0)" xlink:href="#aO" id="o"/><path fill="#666" d="M141 0L90-78 38 0H4l68-98-65-92h35l48 74 47-74h35l-64 92 68 98h-35" id="aT"/><g id="p"><use transform="matrix(0.05555555555555555,0,0,0.05555555555555555,0,0)" xlink:href="#aR"/><use transform="matrix(0.05555555555555555,0,0,0.05555555555555555,16.61111111111111,0)" xlink:href="#av"/><use transform="matrix(0.05555555555555555,0,0,0.05555555555555555,27.72222222222222,0)" xlink:href="#aT"/><use transform="matrix(0.05555555555555555,0,0,0.05555555555555555,37.72222222222222,0)" xlink:href="#aq"/></g><filter id="i" filterUnits="objectBoundingBox" x="-.06" y="-.03" width="1.13" height="1.17"><feOffset result="offOut" in="SourceAlpha" dy="6"/><feGaussianBlur result="blurOut" in="offOut" stdDeviation="5"/><feColorMatrix result="colorOut" in="blurOut" values="0 0 0 0 0 0 0 0 0 0 0 0 0 0 0 0 0 0 0.16862745098039217 0"/><feBlend in="SourceGraphic" in2="colorOut"/></filter><path fill="#666" d="M33 0v-248h34V0H33" id="aU"/><g id="q"><use transform="matrix(0.05555555555555555,0,0,0.05555555555555555,0,0)" xlink:href="#aU"/><use transform="matrix(0.05555555555555555,0,0,0.05555555555555555,5.555555555555555,0)" xlink:href="#aH"/><use transform="matrix(0.05555555555555555,0,0,0.05555555555555555,11.11111111111111,0)" xlink:href="#aM"/><use transform="matrix(0.05555555555555555,0,0,0.05555555555555555,22.22222222222222,0)" xlink:href="#ar"/><use transform="matrix(0.05555555555555555,0,0,0.05555555555555555,28.833333333333332,0)" xlink:href="#av"/><use transform="matrix(0.05555555555555555,0,0,0.05555555555555555,39.94444444444444,0)" xlink:href="#aH"/><use transform="matrix(0.05555555555555555,0,0,0.05555555555555555,45.5,0)" xlink:href="#aM"/></g><path fill="#666" d="M160-131c35 5 61 23 61 61C221 17 115-2 30 0v-248c76 3 177-17 177 60 0 33-19 50-47 57zm-97-11c50-1 110 9 110-42 0-47-63-36-110-37v79zm0 115c55-2 124 14 124-45 0-56-70-42-124-44v89" id="aV"/><g id="r"><use transform="matrix(0.05555555555555555,0,0,0.05555555555555555,0,0)" xlink:href="#aV"/><use transform="matrix(0.05555555555555555,0,0,0.05555555555555555,13.333333333333332,0)" xlink:href="#aq"/><use transform="matrix(0.05555555555555555,0,0,0.05555555555555555,17.72222222222222,0)" xlink:href="#ar"/><use transform="matrix(0.05555555555555555,0,0,0.05555555555555555,24.333333333333332,0)" xlink:href="#as"/><use transform="matrix(0.05555555555555555,0,0,0.05555555555555555,35.44444444444444,0)" xlink:href="#at"/></g><g id="s"><use transform="matrix(0.05555555555555555,0,0,0.05555555555555555,0,0)" xlink:href="#av"/><use transform="matrix(0.05555555555555555,0,0,0.05555555555555555,11.11111111111111,0)" xlink:href="#ar"/><use transform="matrix(0.05555555555555555,0,0,0.05555555555555555,17.72222222222222,0)" xlink:href="#ar"/><use transform="matrix(0.05555555555555555,0,0,0.05555555555555555,24.333333333333332,0)" xlink:href="#av"/><use transform="matrix(0.05555555555555555,0,0,0.05555555555555555,35.44444444444444,0)" xlink:href="#aw"/></g><path fill="#666" d="M101-234c-31-9-42 10-38 44h38v23H63V0H32v-167H5v-23h27c-7-52 17-82 69-68v24" id="aW"/><g id="u"><use transform="matrix(0.05555555555555555,0,0,0.05555555555555555,0,0)" xlink:href="#aq"/><use transform="matrix(0.05555555555555555,0,0,0.05555555555555555,4.388888888888888,0)" xlink:href="#aW"/></g><g id="v"><use transform="matrix(0.05555555555555555,0,0,0.05555555555555555,0,0)" xlink:href="#ap"/><use transform="matrix(0.05555555555555555,0,0,0.05555555555555555,11.11111111111111,0)" xlink:href="#aq"/><use transform="matrix(0.05555555555555555,0,0,0.05555555555555555,15.5,0)" xlink:href="#ar"/><use transform="matrix(0.05555555555555555,0,0,0.05555555555555555,22.11111111111111,0)" xlink:href="#as"/></g><g id="w"><use transform="matrix(0.05555555555555555,0,0,0.05555555555555555,0,0)" xlink:href="#aq"/><use transform="matrix(0.05555555555555555,0,0,0.05555555555555555,4.388888888888888,0)" xlink:href="#as"/></g><g id="x"><use transform="matrix(0.05555555555555555,0,0,0.05555555555555555,0,0)" xlink:href="#av"/><use transform="matrix(0.05555555555555555,0,0,0.05555555555555555,11.11111111111111,0)" xlink:href="#aQ"/><use transform="matrix(0.05555555555555555,0,0,0.05555555555555555,15.5,0)" xlink:href="#ar"/><use transform="matrix(0.05555555555555555,0,0,0.05555555555555555,22.11111111111111,0)" xlink:href="#aM"/><use transform="matrix(0.05555555555555555,0,0,0.05555555555555555,33.22222222222222,0)" xlink:href="#av"/><use transform="matrix(0.05555555555555555,0,0,0.05555555555555555,44.33333333333333,0)" xlink:href="#as"/><use transform="matrix(0.05555555555555555,0,0,0.05555555555555555,55.44444444444444,0)" xlink:href="#aw"/></g><g id="y"><use transform="matrix(0.05555555555555555,0,0,0.05555555555555555,0,0)" xlink:href="#aJ"/><use transform="matrix(0.05555555555555555,0,0,0.05555555555555555,11.11111111111111,0)" xlink:href="#ar"/><use transform="matrix(0.05555555555555555,0,0,0.05555555555555555,17.72222222222222,0)" xlink:href="#aM"/><use transform="matrix(0.05555555555555555,0,0,0.05555555555555555,28.833333333333332,0)" xlink:href="#at"/><use transform="matrix(0.05555555555555555,0,0,0.05555555555555555,38.83333333333333,0)" xlink:href="#aM"/><use transform="matrix(0.05555555555555555,0,0,0.05555555555555555,49.94444444444444,0)" xlink:href="#aS"/><use transform="matrix(0.05555555555555555,0,0,0.05555555555555555,61.05555555555555,0)" xlink:href="#aH"/></g><g id="z"><use transform="matrix(0.05555555555555555,0,0,0.05555555555555555,0,0)" xlink:href="#aq"/><use transform="matrix(0.05555555555555555,0,0,0.05555555555555555,4.388888888888888,0)" xlink:href="#aS"/></g><g id="A"><use transform="matrix(0.05555555555555555,0,0,0.05555555555555555,0,0)" xlink:href="#aR"/><use transform="matrix(0.05555555555555555,0,0,0.05555555555555555,16.61111111111111,0)" xlink:href="#av"/><use transform="matrix(0.05555555555555555,0,0,0.05555555555555555,27.72222222222222,0)" xlink:href="#aJ"/></g><filter id="t" filterUnits="objectBoundingBox" x="-.06" y="-.03" width="1.11" height="1.14"><feOffset result="offOut" in="SourceAlpha" dy="6"/><feGaussianBlur result="blurOut" in="offOut" stdDeviation="5"/><feColorMatrix result="colorOut" in="blurOut" values="0 0 0 0 0 0 0 0 0 0 0 0 0 0 0 0 0 0 0.16862745098039217 0"/><feBlend in="SourceGraphic" in2="colorOut"/></filter><g id="B"><use transform="matrix(0.05555555555555555,0,0,0.05555555555555555,0,0)" xlink:href="#aU"/><use transform="matrix(0.05555555555555555,0,0,0.05555555555555555,5.555555555555555,0)" xlink:href="#aW"/></g><g id="C"><use transform="matrix(0.05555555555555555,0,0,0.05555555555555555,0,0)" xlink:href="#av"/><use transform="matrix(0.05555555555555555,0,0,0.05555555555555555,11.11111111111111,0)" xlink:href="#ar"/><use transform="matrix(0.05555555555555555,0,0,0.05555555555555555,17.72222222222222,0)" xlink:href="#ar"/><use transform="matrix(0.05555555555555555,0,0,0.05555555555555555,24.333333333333332,0)" xlink:href="#av"/><use transform="matrix(0.05555555555555555,0,0,0.05555555555555555,35.44444444444444,0)" xlink:href="#aw"/></g><g id="D"><use transform="matrix(0.05555555555555555,0,0,0.05555555555555555,0,0)" xlink:href="#aM"/><use transform="matrix(0.05555555555555555,0,0,0.05555555555555555,11.11111111111111,0)" xlink:href="#aS"/><use transform="matrix(0.05555555555555555,0,0,0.05555555555555555,22.22222222222222,0)" xlink:href="#as"/></g><path fill="#666" d="M190 0L58-211 59 0H30v-248h39L202-35l-2-213h31V0h-41" id="aX"/><g id="E"><use transform="matrix(0.05555555555555555,0,0,0.05555555555555555,0,0)" xlink:href="#aX"/><use transform="matrix(0.05555555555555555,0,0,0.05555555555555555,14.388888888888888,0)" xlink:href="#aK"/></g><path fill="#666" d="M137-103V0h-34v-103L8-248h37l75 118 75-118h37" id="aY"/><g id="F"><use transform="matrix(0.05555555555555555,0,0,0.05555555555555555,0,0)" xlink:href="#aY"/><use transform="matrix(0.05555555555555555,0,0,0.05555555555555555,11.499999999999998,0)" xlink:href="#aM"/><use transform="matrix(0.05555555555555555,0,0,0.05555555555555555,22.611111111111107,0)" xlink:href="#at"/></g><g id="G"><use transform="matrix(0.05555555555555555,0,0,0.05555555555555555,0,0)" xlink:href="#aq"/><use transform="matrix(0.05555555555555555,0,0,0.05555555555555555,4.388888888888888,0)" xlink:href="#aS"/><use transform="matrix(0.05555555555555555,0,0,0.05555555555555555,15.5,0)" xlink:href="#aN"/><use transform="matrix(0.05555555555555555,0,0,0.05555555555555555,25.5,0)" xlink:href="#ar"/><use transform="matrix(0.05555555555555555,0,0,0.05555555555555555,32.111111111111114,0)" xlink:href="#aM"/><use transform="matrix(0.05555555555555555,0,0,0.05555555555555555,43.22222222222223,0)" xlink:href="#aR"/><use transform="matrix(0.05555555555555555,0,0,0.05555555555555555,59.83333333333334,0)" xlink:href="#aM"/><use transform="matrix(0.05555555555555555,0,0,0.05555555555555555,70.94444444444446,0)" xlink:href="#aS"/><use transform="matrix(0.05555555555555555,0,0,0.05555555555555555,82.05555555555557,0)" xlink:href="#aH"/></g><path fill="#666" d="M84 4C-5 8 30-112 23-190h32v120c0 31 7 50 39 49 72-2 45-101 50-169h31l1 190h-30c-1-10 1-25-2-33-11 22-28 36-60 37" id="aZ"/><g id="H"><use transform="matrix(0.05555555555555555,0,0,0.05555555555555555,0,0)" xlink:href="#aP"/><use transform="matrix(0.05555555555555555,0,0,0.05555555555555555,10,0)" xlink:href="#av"/><use transform="matrix(0.05555555555555555,0,0,0.05555555555555555,21.11111111111111,0)" xlink:href="#aQ"/><use transform="matrix(0.05555555555555555,0,0,0.05555555555555555,25.5,0)" xlink:href="#aZ"/><use transform="matrix(0.05555555555555555,0,0,0.05555555555555555,36.611111111111114,0)" xlink:href="#aM"/></g><path fill="#666" d="M9 0v-24l116-142H16v-24h144v24L44-24h123V0H9" id="ba"/><g id="I"><use transform="matrix(0.05555555555555555,0,0,0.05555555555555555,0,0)" xlink:href="#aU"/><use transform="matrix(0.05555555555555555,0,0,0.05555555555555555,5.555555555555555,0)" xlink:href="#aS"/><use transform="matrix(0.05555555555555555,0,0,0.05555555555555555,16.666666666666664,0)" xlink:href="#aq"/><use transform="matrix(0.05555555555555555,0,0,0.05555555555555555,21.055555555555554,0)" xlink:href="#aH"/><use transform="matrix(0.05555555555555555,0,0,0.05555555555555555,26.611111111111107,0)" xlink:href="#aq"/><use transform="matrix(0.05555555555555555,0,0,0.05555555555555555,31,0)" xlink:href="#av"/><use transform="matrix(0.05555555555555555,0,0,0.05555555555555555,42.11111111111111,0)" xlink:href="#aQ"/><use transform="matrix(0.05555555555555555,0,0,0.05555555555555555,46.49999999999999,0)" xlink:href="#aq"/><use transform="matrix(0.05555555555555555,0,0,0.05555555555555555,50.88888888888888,0)" xlink:href="#ba"/><use transform="matrix(0.05555555555555555,0,0,0.05555555555555555,60.88888888888887,0)" xlink:href="#aM"/></g><path fill="#666" d="M206 0h-36l-40-164L89 0H53L-1-190h32L70-26l43-164h34l41 164 42-164h31" id="bb"/><path fill="#666" d="M106-169C34-169 62-67 57 0H25v-261h32l-1 103c12-21 28-36 61-36 89 0 53 116 60 194h-32v-121c2-32-8-49-39-48" id="bc"/><g id="J"><use transform="matrix(0.05555555555555555,0,0,0.05555555555555555,0,0)" xlink:href="#bb"/><use transform="matrix(0.05555555555555555,0,0,0.05555555555555555,14.388888888888888,0)" xlink:href="#aq"/><use transform="matrix(0.05555555555555555,0,0,0.05555555555555555,18.777777777777775,0)" xlink:href="#aH"/><use transform="matrix(0.05555555555555555,0,0,0.05555555555555555,24.33333333333333,0)" xlink:href="#bc"/></g><path fill="#666" d="M27 0v-27h64v-190l-56 39v-29l58-41h29v221h61V0H27" id="bd"/><use transform="matrix(0.05555555555555555,0,0,0.05555555555555555,0,0)" xlink:href="#bd" id="K"/><path fill="#666" d="M232-93c-1 65-40 97-104 97C67 4 28-28 28-90v-158h33c8 89-33 224 67 224 102 0 64-133 71-224h33v155" id="be"/><g id="M"><use transform="matrix(0.05555555555555555,0,0,0.05555555555555555,0,0)" xlink:href="#be"/><use transform="matrix(0.05555555555555555,0,0,0.05555555555555555,14.388888888888888,0)" xlink:href="#aJ"/><use transform="matrix(0.05555555555555555,0,0,0.05555555555555555,25.5,0)" xlink:href="#as"/><use transform="matrix(0.05555555555555555,0,0,0.05555555555555555,36.611111111111114,0)" xlink:href="#av"/><use transform="matrix(0.05555555555555555,0,0,0.05555555555555555,47.72222222222223,0)" xlink:href="#aH"/><use transform="matrix(0.05555555555555555,0,0,0.05555555555555555,53.277777777777786,0)" xlink:href="#aM"/></g><g id="N"><use transform="matrix(0.05555555555555555,0,0,0.05555555555555555,0,0)" xlink:href="#aR"/><use transform="matrix(0.05555555555555555,0,0,0.05555555555555555,16.61111111111111,0)" xlink:href="#av"/><use transform="matrix(0.05555555555555555,0,0,0.05555555555555555,27.72222222222222,0)" xlink:href="#aT"/><use transform="matrix(0.05555555555555555,0,0,0.05555555555555555,37.72222222222222,0)" xlink:href="#aq"/></g><g id="O"><use transform="matrix(0.05555555555555555,0,0,0.05555555555555555,0,0)" xlink:href="#av"/><use transform="matrix(0.05555555555555555,0,0,0.05555555555555555,11.11111111111111,0)" xlink:href="#aS"/><use transform="matrix(0.05555555555555555,0,0,0.05555555555555555,22.22222222222222,0)" xlink:href="#as"/></g><g id="P"><use transform="matrix(0.05555555555555555,0,0,0.05555555555555555,0,0)" xlink:href="#aR"/><use transform="matrix(0.05555555555555555,0,0,0.05555555555555555,16.61111111111111,0)" xlink:href="#aK"/><use transform="matrix(0.05555555555555555,0,0,0.05555555555555555,27.72222222222222,0)" xlink:href="#aP"/><use transform="matrix(0.05555555555555555,0,0,0.05555555555555555,37.72222222222222,0)" xlink:href="#aM"/></g><g id="Q"><use transform="matrix(0.05555555555555555,0,0,0.05555555555555555,0,0)" xlink:href="#aH"/><use transform="matrix(0.05555555555555555,0,0,0.05555555555555555,5.555555555555555,0)" xlink:href="#aK"/></g><g id="R"><use transform="matrix(0.05555555555555555,0,0,0.05555555555555555,0,0)" xlink:href="#aS"/><use transform="matrix(0.05555555555555555,0,0,0.05555555555555555,11.11111111111111,0)" xlink:href="#aM"/><use transform="matrix(0.05555555555555555,0,0,0.05555555555555555,22.22222222222222,0)" xlink:href="#aT"/><use transform="matrix(0.05555555555555555,0,0,0.05555555555555555,32.22222222222222,0)" xlink:href="#aH"/></g><g id="S"><use transform="matrix(0.05555555555555555,0,0,0.05555555555555555,0,0)" xlink:href="#aM"/><use transform="matrix(0.05555555555555555,0,0,0.05555555555555555,11.11111111111111,0)" xlink:href="#aQ"/><use transform="matrix(0.05555555555555555,0,0,0.05555555555555555,15.5,0)" xlink:href="#aM"/><use transform="matrix(0.05555555555555555,0,0,0.05555555555555555,26.61111111111111,0)" xlink:href="#aR"/><use transform="matrix(0.05555555555555555,0,0,0.05555555555555555,43.22222222222222,0)" xlink:href="#aM"/><use transform="matrix(0.05555555555555555,0,0,0.05555555555555555,54.33333333333333,0)" xlink:href="#aS"/><use transform="matrix(0.05555555555555555,0,0,0.05555555555555555,65.44444444444444,0)" xlink:href="#aH"/></g><filter id="L" filterUnits="objectBoundingBox" x="-.06" y="-.03" width="1.13" height="1.14"><feOffset result="offOut" in="SourceAlpha" dy="6"/><feGaussianBlur result="blurOut" in="offOut" stdDeviation="5"/><feColorMatrix result="colorOut" in="blurOut" values="0 0 0 0 0 0 0 0 0 0 0 0 0 0 0 0 0 0 0.16862745098039217 0"/><feBlend in="SourceGraphic" in2="colorOut"/></filter><path fill="#666" d="M143 0L79-87 56-68V0H24v-261h32v163l83-92h37l-77 82L181 0h-38" id="bf"/><g id="T"><use transform="matrix(0.05555555555555555,0,0,0.05555555555555555,0,0)" xlink:href="#aN"/><use transform="matrix(0.05555555555555555,0,0,0.05555555555555555,10,0)" xlink:href="#bc"/><use transform="matrix(0.05555555555555555,0,0,0.05555555555555555,21.11111111111111,0)" xlink:href="#aM"/><use transform="matrix(0.05555555555555555,0,0,0.05555555555555555,32.22222222222222,0)" xlink:href="#aN"/><use transform="matrix(0.05555555555555555,0,0,0.05555555555555555,42.22222222222222,0)" xlink:href="#bf"/></g><g id="U"><use transform="matrix(0.05555555555555555,0,0,0.05555555555555555,0,0)" xlink:href="#aq"/><use transform="matrix(0.05555555555555555,0,0,0.05555555555555555,4.388888888888888,0)" xlink:href="#aW"/></g><path fill="#666" d="M26 75v-336h71v23H56V52h41v23H26" id="bg"/><path fill="#666" d="M3 75V52h41v-290H3v-23h71V75H3" id="bh"/><g id="V"><use transform="matrix(0.05555555555555555,0,0,0.05555555555555555,0,0)" xlink:href="#aR"/><use transform="matrix(0.05555555555555555,0,0,0.05555555555555555,16.61111111111111,0)" xlink:href="#av"/><use transform="matrix(0.05555555555555555,0,0,0.05555555555555555,27.72222222222222,0)" xlink:href="#aJ"/><use transform="matrix(0.05555555555555555,0,0,0.05555555555555555,38.83333333333333,0)" xlink:href="#bg"/><use transform="matrix(0.05555555555555555,0,0,0.05555555555555555,44.388888888888886,0)" xlink:href="#ap"/><use transform="matrix(0.05555555555555555,0,0,0.05555555555555555,55.5,0)" xlink:href="#aq"/><use transform="matrix(0.05555555555555555,0,0,0.05555555555555555,59.888888888888886,0)" xlink:href="#ar"/><use transform="matrix(0.05555555555555555,0,0,0.05555555555555555,66.5,0)" xlink:href="#as"/><use transform="matrix(0.05555555555555555,0,0,0.05555555555555555,77.61111111111111,0)" xlink:href="#bh"/></g><path fill="#666" d="M18-150v-26h174v26H18zm0 90v-26h174v26H18" id="bi"/><g id="W"><use transform="matrix(0.05555555555555555,0,0,0.05555555555555555,0,0)" xlink:href="#bi"/><use transform="matrix(0.05555555555555555,0,0,0.05555555555555555,11.666666666666666,0)" xlink:href="#bi"/></g><g id="X"><use transform="matrix(0.05555555555555555,0,0,0.05555555555555555,0,0)" xlink:href="#aG"/><use transform="matrix(0.05555555555555555,0,0,0.05555555555555555,13.333333333333332,0)" xlink:href="#aH"/><use transform="matrix(0.05555555555555555,0,0,0.05555555555555555,18.888888888888886,0)" xlink:href="#aK"/><use transform="matrix(0.05555555555555555,0,0,0.05555555555555555,30,0)" xlink:href="#ar"/><use transform="matrix(0.05555555555555555,0,0,0.05555555555555555,36.61111111111111,0)" xlink:href="#aM"/></g><g id="Y"><use transform="matrix(0.05555555555555555,0,0,0.05555555555555555,0,0)" xlink:href="#ap"/><use transform="matrix(0.05555555555555555,0,0,0.05555555555555555,11.11111111111111,0)" xlink:href="#aq"/><use transform="matrix(0.05555555555555555,0,0,0.05555555555555555,15.5,0)" xlink:href="#ar"/><use transform="matrix(0.05555555555555555,0,0,0.05555555555555555,22.11111111111111,0)" xlink:href="#as"/></g><g id="Z"><use transform="matrix(0.05555555555555555,0,0,0.05555555555555555,0,0)" xlink:href="#aq"/><use transform="matrix(0.05555555555555555,0,0,0.05555555555555555,4.388888888888888,0)" xlink:href="#as"/></g><g id="aa"><use transform="matrix(0.05555555555555555,0,0,0.05555555555555555,0,0)" xlink:href="#aH"/><use transform="matrix(0.05555555555555555,0,0,0.05555555555555555,5.555555555555555,0)" xlink:href="#aK"/></g><g id="ab"><use transform="matrix(0.05555555555555555,0,0,0.05555555555555555,0,0)" xlink:href="#aR"/><use transform="matrix(0.05555555555555555,0,0,0.05555555555555555,16.61111111111111,0)" xlink:href="#av"/><use transform="matrix(0.05555555555555555,0,0,0.05555555555555555,27.72222222222222,0)" xlink:href="#aT"/><use transform="matrix(0.05555555555555555,0,0,0.05555555555555555,37.72222222222222,0)" xlink:href="#aV"/><use transform="matrix(0.05555555555555555,0,0,0.05555555555555555,51.05555555555556,0)" xlink:href="#aq"/><use transform="matrix(0.05555555555555555,0,0,0.05555555555555555,55.44444444444444,0)" xlink:href="#ar"/><use transform="matrix(0.05555555555555555,0,0,0.05555555555555555,62.05555555555555,0)" xlink:href="#as"/><use transform="matrix(0.05555555555555555,0,0,0.05555555555555555,73.16666666666667,0)" xlink:href="#at"/></g><g id="ad"><use transform="matrix(0.05555555555555555,0,0,0.05555555555555555,0,0)" xlink:href="#aR"/><use transform="matrix(0.05555555555555555,0,0,0.05555555555555555,16.61111111111111,0)" xlink:href="#aq"/><use transform="matrix(0.05555555555555555,0,0,0.05555555555555555,21,0)" xlink:href="#aS"/><use transform="matrix(0.05555555555555555,0,0,0.05555555555555555,32.111111111111114,0)" xlink:href="#aq"/><use transform="matrix(0.05555555555555555,0,0,0.05555555555555555,36.5,0)" xlink:href="#aq"/></g><g id="ae"><use transform="matrix(0.05555555555555555,0,0,0.05555555555555555,0,0)" xlink:href="#aR"/><use transform="matrix(0.05555555555555555,0,0,0.05555555555555555,16.61111111111111,0)" xlink:href="#aq"/><use transform="matrix(0.05555555555555555,0,0,0.05555555555555555,21,0)" xlink:href="#aS"/><use transform="matrix(0.05555555555555555,0,0,0.05555555555555555,32.111111111111114,0)" xlink:href="#aV"/><use transform="matrix(0.05555555555555555,0,0,0.05555555555555555,45.44444444444444,0)" xlink:href="#aq"/><use transform="matrix(0.05555555555555555,0,0,0.05555555555555555,49.83333333333333,0)" xlink:href="#ar"/><use transform="matrix(0.05555555555555555,0,0,0.05555555555555555,56.44444444444444,0)" xlink:href="#as"/><use transform="matrix(0.05555555555555555,0,0,0.05555555555555555,67.55555555555556,0)" xlink:href="#at"/></g><path fill="#666" d="M143 4C61 4 22-44 18-125c-5-107 100-154 193-111 17 8 29 25 37 43l-32 9c-13-25-37-40-76-40-61 0-88 39-88 99 0 61 29 100 91 101 35 0 62-11 79-27v-45h-74v-28h105v86C228-13 192 4 143 4" id="bj"/><g id="af"><use transform="matrix(0.05555555555555555,0,0,0.05555555555555555,0,0)" xlink:href="#bj"/><use transform="matrix(0.05555555555555555,0,0,0.05555555555555555,15.555555555555555,0)" xlink:href="#aM"/><use transform="matrix(0.05555555555555555,0,0,0.05555555555555555,26.666666666666664,0)" xlink:href="#aH"/></g><g id="ag"><use transform="matrix(0.05555555555555555,0,0,0.05555555555555555,0,0)" xlink:href="#aR"/><use transform="matrix(0.05555555555555555,0,0,0.05555555555555555,16.61111111111111,0)" xlink:href="#aq"/><use transform="matrix(0.05555555555555555,0,0,0.05555555555555555,21,0)" xlink:href="#aS"/><use transform="matrix(0.05555555555555555,0,0,0.05555555555555555,32.111111111111114,0)" xlink:href="#aq"/><use transform="matrix(0.05555555555555555,0,0,0.05555555555555555,36.5,0)" xlink:href="#aR"/><use transform="matrix(0.05555555555555555,0,0,0.05555555555555555,53.111111111111114,0)" xlink:href="#aZ"/><use transform="matrix(0.05555555555555555,0,0,0.05555555555555555,64.22222222222223,0)" xlink:href="#aR"/></g><g id="ah"><use transform="matrix(0.05555555555555555,0,0,0.05555555555555555,0,0)" xlink:href="#aK"/><use transform="matrix(0.05555555555555555,0,0,0.05555555555555555,11.11111111111111,0)" xlink:href="#aW"/></g><g id="ai"><use transform="matrix(0.05555555555555555,0,0,0.05555555555555555,0,0)" xlink:href="#ap"/><use transform="matrix(0.05555555555555555,0,0,0.05555555555555555,11.11111111111111,0)" xlink:href="#aK"/><use transform="matrix(0.05555555555555555,0,0,0.05555555555555555,22.22222222222222,0)" xlink:href="#aH"/><use transform="matrix(0.05555555555555555,0,0,0.05555555555555555,27.77777777777778,0)" xlink:href="#bc"/></g><g id="aj"><use transform="matrix(0.05555555555555555,0,0,0.05555555555555555,0,0)" xlink:href="#av"/><use transform="matrix(0.05555555555555555,0,0,0.05555555555555555,11.11111111111111,0)" xlink:href="#ar"/><use transform="matrix(0.05555555555555555,0,0,0.05555555555555555,17.72222222222222,0)" xlink:href="#ar"/><use transform="matrix(0.05555555555555555,0,0,0.05555555555555555,24.333333333333332,0)" xlink:href="#av"/><use transform="matrix(0.05555555555555555,0,0,0.05555555555555555,35.44444444444444,0)" xlink:href="#aw"/></g><g id="ak"><use transform="matrix(0.05555555555555555,0,0,0.05555555555555555,0,0)" xlink:href="#aJ"/><use transform="matrix(0.05555555555555555,0,0,0.05555555555555555,11.11111111111111,0)" xlink:href="#ar"/><use transform="matrix(0.05555555555555555,0,0,0.05555555555555555,17.72222222222222,0)" xlink:href="#aq"/><use transform="matrix(0.05555555555555555,0,0,0.05555555555555555,22.11111111111111,0)" xlink:href="#aS"/><use transform="matrix(0.05555555555555555,0,0,0.05555555555555555,33.22222222222222,0)" xlink:href="#aH"/></g><g id="al"><use transform="matrix(0.05555555555555555,0,0,0.05555555555555555,0,0)" xlink:href="#aH"/><use transform="matrix(0.05555555555555555,0,0,0.05555555555555555,5.555555555555555,0)" xlink:href="#bc"/><use transform="matrix(0.05555555555555555,0,0,0.05555555555555555,16.666666666666664,0)" xlink:href="#aM"/><use transform="matrix(0.05555555555555555,0,0,0.05555555555555555,27.777777777777775,0)" xlink:href="#aR"/></g><path fill="#666" d="M30 0v-248h187v28H63v79h144v27H63v87h162V0H30" id="bk"/><g id="am"><use transform="matrix(0.05555555555555555,0,0,0.05555555555555555,0,0)" xlink:href="#bk"/><use transform="matrix(0.05555555555555555,0,0,0.05555555555555555,13.333333333333332,0)" xlink:href="#aS"/><use transform="matrix(0.05555555555555555,0,0,0.05555555555555555,24.444444444444443,0)" xlink:href="#as"/></g><g id="an"><use transform="matrix(0.05555555555555555,0,0,0.05555555555555555,0,0)" xlink:href="#aU"/><use transform="matrix(0.05555555555555555,0,0,0.05555555555555555,5.555555555555555,0)" xlink:href="#aS"/><use transform="matrix(0.05555555555555555,0,0,0.05555555555555555,16.666666666666664,0)" xlink:href="#aJ"/><use transform="matrix(0.05555555555555555,0,0,0.05555555555555555,27.777777777777775,0)" xlink:href="#aZ"/><use transform="matrix(0.05555555555555555,0,0,0.05555555555555555,38.888888888888886,0)" xlink:href="#aH"/></g><g id="ao"><use transform="matrix(0.05555555555555555,0,0,0.05555555555555555,0,0)" xlink:href="#ap"/><use transform="matrix(0.05555555555555555,0,0,0.05555555555555555,11.11111111111111,0)" xlink:href="#aq"/><use transform="matrix(0.05555555555555555,0,0,0.05555555555555555,15.5,0)" xlink:href="#ar"/><use transform="matrix(0.05555555555555555,0,0,0.05555555555555555,22.11111111111111,0)" xlink:href="#as"/><use transform="matrix(0.05555555555555555,0,0,0.05555555555555555,33.22222222222222,0)" xlink:href="#at"/></g></defs></g></svg>